<svg width="64" height="64" viewBox="0 0 64 64" xmlns="http://www.w3.org/2000/svg">
  <rect x="2" y="2" width="60" height="60" rx="16" fill="#7c4dff"/>
  <g>
    <rect x="9" y="9" width="14" height="14" rx="3" fill="#fff9f0"/>
    <rect x="25" y="9" width="14" height="14" rx="3" fill="#fff9f0"/>
    <rect x="41" y="9" width="14" height="14" rx="3" fill="#fff9f0"/>
    <rect x="9" y="25" width="14" height="14" rx="3" fill="#fff9f0"/>
    <rect x="25" y="25" width="14" height="14" rx="3" fill="#fff9f0"/>
    <rect x="41" y="25" width="14" height="14" rx="3" fill="#fff9f0"/>
    <rect x="9" y="41" width="14" height="14" rx="3" fill="#fff9f0"/>
    <rect x="25" y="41" width="14" height="14" rx="3" fill="#fff9f0"/>
    <rect x="41" y="41" width="14" height="14" rx="3" fill="#fff9f0"/>
  </g>
  <g fill="none">
    <circle cx="16" cy="16" r="5" fill="#ff4d8d"/>
    <circle cx="48" cy="16" r="5" fill="#2f9bff"/>
    <circle cx="32" cy="32" r="5" fill="#2f9bff"/>
    <circle cx="16" cy="48" r="5" fill="#ff4d8d"/>
    <circle cx="48" cy="48" r="5" fill="#ff4d8d"/>
  </g>
  <line x1="13" y1="13" x2="51" y2="51" stroke="#ffd23f" stroke-width="6" stroke-linecap="round"/>
</svg>
